# AST/ASF file generated using VICON BodyLanguage
# -----------------------------------------------
:version 1.10
:name VICON
:units
  mass 1.0
  length 0.45
  angle deg
:documentation
   .ast/.asf automatically generated from VICON data using
   VICON BodyBuilder and BodyLanguage model FoxedUp or BRILLIANT.MOD
:root
   order TX TY TZ RX RY RZ
   axis XYZ
   position 0 0 0  
   orientation 0 0 0 
:bonedata
  begin
     id 1 
     name lhipjoint
     direction 0.643824 -0.71708 0.266994 
     length 2.52133 
     axis 0 0 0  XYZ
  end
  begin
     id 2 
     name lfemur
     direction 0.34202 -0.939693 0  
     length 7.51824  
     axis 0 0 20  XYZ
    dof rx ry rz
    limits (-160.0 20.0)
           (-70.0 70.0)
           (-60.0 70.0)
  end
  begin
     id 3 
     name ltibia
     direction 0.34202 -0.939693 0   
     length 7.3685   
     axis 0 0 20   XYZ
    dof rx
    limits (-10.0 170.0)
  end
  begin
     id 4 
     name lfoot
     direction 0.105419 -0.289636 0.951314   
     length 2.20972   
     axis -90 7.62852e-016 20   XYZ
    dof rx rz
    limits (-45.0 90.0)
           (-70.0 20.0)
  end
  begin
     id 5 
     name ltoes
     direction 1.53549e-011 -4.21833e-011 1   
     length 1.10139   
     axis -90 7.62852e-016 20   XYZ
    dof rx
    limits (-90.0 20.0)
  end
  begin
     id 6 
     name rhipjoint
     direction -0.608823 -0.743445 0.276811   
     length 2.43192  
     axis 0 0 0  XYZ 
  end
  begin
     id 7 
     name rfemur
     direction -0.34202 -0.939693 0   
     length 7.69715   
     axis 0 0 -20   XYZ
    dof rx ry rz
    limits (-160.0 20.0)
           (-70.0 70.0)
           (-70.0 60.0)
  end
  begin
     id 8 
     name rtibia
     direction -0.34202 -0.939693 0   
     length 7.44924   
     axis 0 0 -20   XYZ
    dof rx
    limits (-10.0 170.0)
 end
 begin
     id 9 
     name rfoot
     direction -0.103614 -0.284677 0.953007   
     length 2.22623  
     axis -90 -7.62852e-016 -20   XYZ
    dof rx rz
    limits (-45.0 90.0)
           (-20.0 70.0)
  end
  begin
     id 10 
     name rtoes
     direction -1.53537e-011 -4.22026e-011 1   
     length 1.11   
     axis -90 -7.62852e-016 -20   XYZ
    dof rx
    limits (-90.0 20.0)
  end
  begin
     id 11 
     name lowerback
     direction -0.0101212 0.99662 -0.0815298   
     length 2.08277   
     axis 0 0 0   XYZ
    dof rx ry rz
    limits (-20.0 45.0)
           (-30.0 30.0)
           (-30.0 30.0)
  end
  begin
     id 12 
     name upperback
     direction 0.024314 0.999591 -0.0150645   
     length 2.08524   
     axis 0 0 0   XYZ
    dof rx ry rz
    limits (-20.0 45.0)
           (-30.0 30.0)
           (-30.0 30.0)
  end
  begin
     id 13 
     name thorax
     direction 0.0285959 0.999323 0.0231357   
     length 2.09645   
     axis 0 0 0   XYZ
    dof rx ry rz
    limits (-20.0 45.0)
           (-30.0 30.0)
           (-30.0 30.0)
  end
  begin
     id 14 
     name lowerneck
     direction -0.065512 0.979301 0.191515   
     length 1.63798   
     axis 0 0 0   XYZ
    dof rx ry rz
    limits (-20.0 45.0)
           (-30.0 30.0)
           (-30.0 30.0)
  end
  begin
     id 15 
     name upperneck
     direction 0.0498479 0.98191 -0.182667   
     length 1.68731   
     axis 0 0 0   XYZ
    dof rx ry rz
    limits (-20.0 45.0)
           (-30.0 30.0)
           (-30.0 30.0)
  end
  begin
     id 16
     name head
     direction 0.0230358 0.996257 -0.0833175  
     length 1.69785  
     axis 0 0 0   XYZ
    dof rx ry rz
    limits (-20.0 45.0)
           (-30.0 30.0)
           (-30.0 30.0)
  end
  begin
     id 17 
     name lclavicle
     direction 0.967963 0.201165 -0.150269  
     length 3.63976  
     axis 0 0 0   XYZ
    dof ry rz
    limits (-20.0 10.0)
           (0.0 20.0)
  end
  begin
     id 18 
     name lhumerus
     direction 1 -4.48954e-011 -2.92837e-028   
     length 5.32462   
     axis 180 -30 -90   XYZ
    dof rx ry rz
    limits (-60.0 90.0)
           (-90.0 90.0)
           (-90.0 90.0)
  end
  begin
     id 19
     name lradius
     direction 1 -4.48958e-011 -6.39511e-027   
     length 3.48402   
     axis 180 -30 -90   XYZ
    dof rx
    limits (-10.0 170.0)
  end
  begin
     id 20
     name lwrist
     direction 1 -4.48975e-011 -1.1413e-026   
     length 1.74201   
     axis 6.88575e-015 90 90   XYZ
    dof ry
    limits (-180.0 0.0)
 end
  begin
     id 21 
     name lhand
     direction 1 -4.48899e-011 -2.28192e-026   
     length 0.572476   
     axis 1.45643e-014 90 90   XYZ
    dof rx rz
    limits (-90.0 90.0)
           (-45.0 45.0)
  end
  begin
     id 22 
     name lfingers
     direction 1 -4.49155e-011 -4.5684e-026   
     length 0.461545   
     axis 2.91283e-014 90 90   XYZ
    dof rx
    limits (0.0 90.0)
  end
  begin
     id 23
     name lthumb
     direction 0.707107 -6.34943e-011 0.707107   
     length 0.662688   
     axis -90 45 -2.25915e-014   XYZ
    dof rx rz
    limits (-45.0 45.0)
           (-45.0 45.0)
  end
  begin
     id 24 
     name rclavicle
     direction -0.964103 0.264019 -0.0282629   
     length 3.54491  
     axis 0 0 0   XYZ 
    dof ry rz
    limits (-10.0 20.0)
           (-20.0 0.0)
  end
  begin
     id 25 
     name rhumerus
     direction -1 -4.48964e-011 -2.45032e-027  
     length 5.33589   
     axis 180 30 90   XYZ
    dof rx ry rz
    limits (-90.0 60.0)
           (-90.0 90.0)
           (-90.0 90.0)
  end
  begin
     id 26 
     name rradius
     direction -1 -4.48987e-011 -1.55093e-027   
     length 3.64134   
     axis 180 30 90   XYZ
    dof rx
    limits (-10.0 170.0)
  end
  begin
     id 27 
     name rwrist
     direction -1 -4.4897e-011 -1.14128e-026   
     length 1.82067   
     axis 6.88575e-015 -90 -90   XYZ
    dof ry
    limits (-180.0 0.0)
  end
  begin
     id 28
     name rhand
     direction -1 -4.49021e-011 -2.28301e-026   
     length 0.734811   
     axis 1.45643e-014 -90 -90   XYZ
    dof rx rz
    limits (-90.0 90.0)
           (-45.0 45.0)
  end
  begin
     id 29
     name rfingers
     direction -1 -4.48862e-011 -4.56319e-026   
     length 0.592424   
     axis 2.91283e-014 -90 -90   XYZ
    dof rx
    limits (0.0 90.0)
  end
  begin
     id 30
     name rthumb
     direction -0.707107 -6.34978e-011 0.707107   
     length 0.850605   
     axis -90 -45 2.25915e-014   XYZ
    dof rx rz
    limits (-45.0 45.0)
           (-45.0 45.0)
  end
:hierarchy
  begin
    root lhipjoint rhipjoint lowerback
    lhipjoint lfemur
    lfemur ltibia
    ltibia lfoot
    lfoot ltoes
    rhipjoint rfemur
    rfemur rtibia
    rtibia rfoot
    rfoot rtoes
    lowerback upperback
    upperback thorax
    thorax lowerneck lclavicle rclavicle
    lowerneck upperneck
    upperneck head
    lclavicle lhumerus
    lhumerus lradius
    lradius lwrist
    lwrist lhand lthumb
    lhand lfingers
    rclavicle rhumerus
    rhumerus rradius
    rradius rwrist
    rwrist rhand rthumb
    rhand rfingers
  end

#!OML:ASF F:\VICON\USERDATA\INSTALL\rory3\rory3.ASF
:FULLY-SPECIFIED
:DEGREES
205
root 1.81755 17.8221 2.96973 33.3701 74.9475 17.7282
lowerback 11.8493 0.649829 1.00472
upperback 6.93697 1.44259 7.33993
thorax 0.474921 0.784575 7.00073
lowerneck -10.4356 -10.3233 -10.7907
upperneck 28.6379 -14.3169 9.5245
head 12.7824 -6.17799 3.37249
rclavicle -4.77083e-015 -6.36111e-015
rhumerus 13.2448 -24.0092 -82.3204
rradius 40.6583
rwrist -22.4593
rhand -37.6628 -28.0198
rfingers 7.12502
rthumb -10.714 -57.7266
lclavicle -4.77083e-015 -6.36111e-015
lhumerus -21.6345 -41.2926 100.551
lradius 77.1579
lwrist 33.752
lhand -4.96551 48.0709
lfingers 7.12502
lthumb 20.8266 76.9731
rfemur -37.9049 -8.68221 13.796
rtibia 34.586
rfoot -13.3841 -9.8075
rtoes 11.3439
lfemur -30.3727 -9.95076 -14.4135
ltibia 25.292
lfoot -7.65196 -10.9783
ltoes -15.6223
206
root 1.81936 17.8274 3.03166 33.8256 75.0589 18.3456
lowerback 11.7958 0.918696 1.20066
upperback 6.9556 1.81889 7.42786
thorax 0.482693 0.979324 6.93828
lowerneck -10.2893 -10.6799 -10.5446
upperneck 28.5582 -14.8208 9.35241
head 12.7453 -6.39419 3.18434
rclavicle 3.02153e-014 1.27222e-014
rhumerus 13.5239 -22.6496 -82.6815
rradius 40.6084
rwrist -22.9763
rhand -37.26 -27.3452
rfingers 7.12502
rthumb -10.3255 -57.0717
lclavicle 3.02153e-014 1.27222e-014
lhumerus -22.5991 -40.5946 100.538
lradius 76.8536
lwrist 34.1915
lhand -5.28367 48.4268
lfingers 7.12502
lthumb 20.5208 77.3623
rfemur -37.7431 -8.27176 13.701
rtibia 34.8242
rfoot -13.8376 -10.1769
rtoes 11.5703
lfemur -30.1514 -9.91571 -14.4186
ltibia 25.241
lfoot -7.44894 -10.9897
ltoes -16.0314
207
root 1.81925 17.8259 3.09652 34.0433 75.3153 18.8765
lowerback 11.9474 1.11945 1.45033
upperback 6.95538 2.13073 7.59538
thorax 0.367903 1.1458 6.93517
lowerneck -9.97987 -11.0202 -10.5344
upperneck 28.4908 -15.2893 9.28852
head 12.7064 -6.61156 3.09081
rclavicle 2.8625e-014 0
rhumerus 13.7854 -21.2119 -82.946
rradius 40.5636
rwrist -23.4033
rhand -36.5418 -27.2994
rfingers 7.12502
rthumb -9.63256 -57.0591
lclavicle 2.8625e-014 0
lhumerus -23.7066 -39.8168 100.598
lradius 76.6565
lwrist 34.7296
lhand -5.5042 49.434
lfingers 7.12502
lthumb 20.3089 78.3921
rfemur -37.405 -8.02115 13.7125
rtibia 35.0544
rfoot -14.4203 -10.3484
rtoes 12.7603
lfemur -29.8343 -9.72926 -14.4156
ltibia 25.2531
lfoot -7.25794 -11.2487
ltoes -16.1088
208
root 1.82412 17.8227 3.16253 35.2866 75.9176 20.1529
lowerback 11.7835 1.17243 1.80924
upperback 6.89071 2.24433 7.79588
thorax 0.381346 1.2143 6.93371
lowerneck -9.8753 -11.3389 -10.4833
upperneck 28.4927 -15.7087 9.1544
head 12.7205 -6.80274 2.96334
rclavicle -2.22639e-014 7.63333e-014
rhumerus 14.2467 -19.8493 -83.4145
rradius 40.3918
rwrist -23.6268
rhand -35.7191 -27.2615
rfingers 7.12502
rthumb -8.83875 -57.0564
lclavicle -2.22639e-014 7.63333e-014
lhumerus -24.5238 -38.9587 100.5
lradius 76.1631
lwrist 34.8595
lhand -4.99828 49.1051
lfingers 7.12502
lthumb 20.7951 78.0107
rfemur -37.3579 -8.29801 13.8882
rtibia 35.3196
rfoot -14.8271 -10.5837
rtoes 12.7798
lfemur -29.9621 -9.57351 -14.368
ltibia 25.3203
lfoot -6.93953 -11.8791
ltoes -15.5426
209
root 1.83057 17.8244 3.21386 35.7044 75.6426 20.6383
lowerback 11.6836 1.50689 1.96963
upperback 6.93336 2.69178 7.81355
thorax 0.43759 1.44184 6.80906
lowerneck -9.75979 -11.6633 -10.4405
upperneck 28.4064 -16.1498 9.08521
head 12.7052 -7.00124 2.85756
rclavicle 0 4.13472e-014
rhumerus 14.746 -18.5759 -84.0833
rradius 40.1531
rwrist -23.7188
rhand -35.2577 -26.9586
rfingers 7.12502
rthumb -8.39346 -56.7718
lclavicle 0 4.13472e-014
lhumerus -25.0914 -37.7218 100.196
lradius 75.1996
lwrist 33.9985
lhand -3.07972 47.4246
lfingers 7.12502
lthumb 22.6375 76.117
rfemur -37.3936 -8.02778 13.7596
rtibia 35.577
rfoot -14.9559 -10.5589
rtoes 12.2679
lfemur -29.8278 -9.57505 -14.4694
ltibia 25.4215
lfoot -6.86944 -11.5375
ltoes -15.5134
210
root 1.83368 17.8226 3.26421 36.9907 75.4944 22.0039
lowerback 11.588 1.78608 2.0106
upperback 6.93757 3.05883 7.86469
thorax 0.454524 1.62627 6.79911
lowerneck -9.62871 -11.9914 -10.5038
upperneck 28.2896 -16.5836 9.05144
head 12.6877 -7.20505 2.78325
rclavicle -4.92986e-014 -9.85972e-014
rhumerus 15.269 -17.1595 -84.476
rradius 39.7284
rwrist -24.1872
rhand -35.2434 -25.947
rfingers 7.12502
rthumb -8.37965 -55.7608
lclavicle -4.92986e-014 -9.85972e-014
lhumerus -26.0138 -37.126 100.274
lradius 75.175
lwrist 36.5507
lhand -8.2878 49.5221
lfingers 7.12502
lthumb 17.6319 78.7427
rfemur -37.4252 -8.02348 13.5012
rtibia 35.8472
rfoot -15.1218 -10.471
rtoes 12.0158
lfemur -29.7924 -9.64217 -14.7273
ltibia 25.5362
lfoot -6.67865 -11.4429
ltoes -15.8361
211
root 1.83724 17.8218 3.3226 37.6209 75.4615 22.8433
lowerback 11.5643 2.037 2.14911
upperback 6.98816 3.40548 7.95635
thorax 0.486999 1.80424 6.77944
lowerneck -9.55474 -12.3238 -10.5415
upperneck 28.3034 -17.0066 8.92931
head 12.7219 -7.40406 2.67128
rclavicle 4.77083e-014 5.725e-014
rhumerus 15.8017 -15.7286 -84.8766
rradius 39.358
rwrist -24.6383
rhand -35.4813 -25.1356
rfingers 7.12502
rthumb -8.60927 -54.94
lclavicle 4.77083e-014 5.725e-014
lhumerus -26.5606 -35.9192 99.7608
lradius 74.2087
lwrist 35.606
lhand -7.24243 48.3114
lfingers 7.12502
lthumb 18.6376 77.4385
rfemur -37.2436 -7.95826 13.4061
rtibia 36.0639
rfoot -15.2986 -10.433
rtoes 11.7734
lfemur -29.598 -9.39814 -14.8965
ltibia 25.6753
lfoot -6.54305 -11.6695
ltoes -15.7034
